<?xml version="1.0" encoding="utf-8"?>
<!-- Generator: Adobe Illustrator 25.4.1, SVG Export Plug-In . SVG Version: 6.00 Build 0)  -->
<svg version="1.1" id="Layer_1" xmlns="http://www.w3.org/2000/svg" xmlns:xlink="http://www.w3.org/1999/xlink" x="0px" y="0px"
	 viewBox="0 0 500 500" style="enable-background:new 0 0 500 500;" xml:space="preserve">
<style type="text/css">
	.st0{fill:#212328;}
	.st1{opacity:0.51;}
	.st2{fill:#FFFFFF;}
</style>
<g>
	<g>
		<g>
			<g>
				<path class="st0" d="M380.9,55.3H119.1c-34.3,0-62,27.8-62,62v265.3c0,34.3,27.8,62,62,62h261.8c34.2,0,62-27.8,62-62V117.4
					C443,83.1,415.2,55.3,380.9,55.3z"/>
				<path class="st0" d="M469.6,415.5c0,31-25.2,56.2-56.2,56.2H86.6c-31,0-56.2-25.2-56.2-56.2v-331c0-31,25.2-56.2,56.2-56.2
					h326.7c31,0,56.2,25.2,56.2,56.2V415.5z"/>
			</g>
		</g>
	</g>
	<g>
		<g id="Layer_199">
			<g class="st1">
				<path class="st2" d="M371.3,357.6c-1.8,0-3.2,1.4-3.2,3.2c0,0.5,0.1,1,0.3,1.4L351.6,379h-13.3v2.2h14.1l17.4-17.4
					c1.6,0.8,3.5,0.1,4.3-1.5c0.8-1.6,0.1-3.5-1.5-4.3C372.3,357.7,371.8,357.6,371.3,357.6L371.3,357.6z M371.3,361.9
					c-0.6,0-1.1-0.5-1.1-1.1c0-0.6,0.5-1.1,1.1-1.1c0.6,0,1.1,0.5,1.1,1.1C372.4,361.4,371.9,361.9,371.3,361.9
					C371.3,361.9,371.3,361.9,371.3,361.9z"/>
				<path class="st2" d="M372.4,330.2l-15.7-15.7v-15.9c1.7-0.6,2.6-2.4,2-4.1c-0.6-1.7-2.4-2.6-4.1-2s-2.6,2.4-2,4.1
					c0.3,0.9,1,1.6,2,2v16.8l15.7,15.7v16.3l-14.8,14.8c-1.6-0.8-3.6-0.1-4.4,1.5c-0.8,1.6-0.1,3.6,1.5,4.4c1.6,0.8,3.6,0.1,4.4-1.5
					c0.4-0.9,0.4-1.9,0-2.8l15.4-15.4L372.4,330.2z M355.6,296.6c-0.6,0-1.1-0.5-1.1-1.1c0-0.6,0.5-1.1,1.1-1.1
					c0.6,0,1.1,0.5,1.1,1.1C356.6,296.2,356.2,296.6,355.6,296.6z M354,366.3c-0.6,0-1.1-0.5-1.1-1.1c0-0.6,0.5-1.1,1.1-1.1
					c0.6,0,1.1,0.5,1.1,1.1C355.1,365.8,354.7,366.2,354,366.3C354.1,366.3,354.1,366.3,354,366.3z"/>
				<path class="st2" d="M363.8,334.5l-4.6-4.6c0.2-0.4,0.3-0.9,0.3-1.4c0-1.8-1.4-3.2-3.2-3.2s-3.2,1.4-3.2,3.2
					c0,1.8,1.4,3.2,3.2,3.2c0.5,0,1-0.1,1.4-0.3l4,4v7.7l-10.5,10.5c-1.6-0.8-3.6-0.1-4.4,1.5c-0.8,1.6-0.1,3.6,1.5,4.4
					c1.6,0.8,3.6,0.1,4.4-1.5c0.4-0.9,0.4-1.9,0-2.8l11.1-11.1L363.8,334.5z M356.2,329.6c-0.6,0-1.1-0.5-1.1-1.1
					c0-0.6,0.5-1.1,1.1-1.1c0.6,0,1.1,0.5,1.1,1.1C357.3,329.1,356.8,329.6,356.2,329.6C356.2,329.6,356.2,329.6,356.2,329.6z
					 M349.7,357.6c-0.6,0-1.1-0.5-1.1-1.1c0-0.6,0.5-1.1,1.1-1.1c0.6,0,1.1,0.5,1.1,1.1C350.8,357.1,350.4,357.6,349.7,357.6
					C349.8,357.6,349.8,357.6,349.7,357.6z"/>
				<path class="st2" d="M349.7,390c-1.8,0-3.2,1.4-3.2,3.2c0,0.5,0.1,1,0.3,1.4l-8.5,8.5v3l10-10c0.4,0.2,0.9,0.3,1.4,0.3
					c1.8,0,3.2-1.4,3.2-3.2S351.5,390,349.7,390L349.7,390z M349.7,394.3c-0.6,0-1.1-0.5-1.1-1.1c0-0.6,0.5-1.1,1.1-1.1
					c0.6,0,1.1,0.5,1.1,1.1C350.8,393.8,350.4,394.3,349.7,394.3C349.8,394.3,349.8,394.3,349.7,394.3z"/>
				<path class="st2" d="M276.7,113.9c-1.8,0-3.2,1.4-3.2,3.2c0,0.5,0.1,1,0.3,1.5l0,0l-10.6,10.6v12.3h2.2V130l10-10
					c0.4,0.2,0.9,0.3,1.4,0.3c1.8,0,3.2-1.4,3.2-3.2S278.5,113.9,276.7,113.9L276.7,113.9z M276.7,118.2c-0.6,0-1.1-0.5-1.1-1.1
					c0-0.6,0.5-1.1,1.1-1.1c0.6,0,1.1,0.5,1.1,1.1C277.8,117.7,277.3,118.2,276.7,118.2z"/>
				<path class="st2" d="M294,111.2c-1.8,0-3.2,1.5-3.2,3.3c0,1.4,0.9,2.6,2.1,3v23.9h2.2v-23.9c1.7-0.6,2.5-2.5,1.9-4.1
					C296.5,112.1,295.3,111.3,294,111.2L294,111.2z M294,115.6c-0.6,0-1.1-0.5-1.1-1.1c0-0.6,0.5-1.1,1.1-1.1c0.6,0,1.1,0.5,1.1,1.1
					C295,115.1,294.6,115.5,294,115.6z"/>
				<path class="st2" d="M317.7,90.2c-1.8,0-3.2,1.4-3.2,3.2c0,0.5,0.1,1,0.3,1.5l0,0l-10.6,10.6v36h2.2v-35.1l10-10
					c0.4,0.2,0.9,0.3,1.4,0.3c1.8,0,3.2-1.4,3.2-3.2S319.5,90.2,317.7,90.2L317.7,90.2z M317.7,94.5c-0.6,0-1.1-0.5-1.1-1.1
					c0-0.6,0.5-1.1,1.1-1.1c0.6,0,1.1,0.5,1.1,1.1C318.7,94,318.2,94.5,317.7,94.5z"/>
				<path class="st2" d="M328.4,96.6c-1.8,0-3.2,1.4-3.2,3.2c0,0.5,0.1,1,0.3,1.5l0,0l-13.2,13.3v12.5c-1.7,0.6-2.5,2.5-1.9,4.1
					c0.5,1.3,1.7,2.1,3,2.1c1.8,0,3.2-1.5,3.2-3.3c0-1.4-0.9-2.6-2.1-3v-11.6l12.6-12.6c0.4,0.2,0.9,0.3,1.4,0.3
					c1.8,0,3.2-1.4,3.2-3.2S330.3,96.7,328.4,96.6L328.4,96.6z M313.3,131.1c-0.6,0-1.1-0.5-1.1-1.1s0.5-1.1,1.1-1.1
					c0.6,0,1.1,0.5,1.1,1.1C314.4,130.7,313.9,131.1,313.3,131.1z M328.4,101c-0.6,0-1.1-0.5-1.1-1.1c0-0.6,0.5-1.1,1.1-1.1
					s1.1,0.5,1.1,1.1C329.5,100.5,329,100.9,328.4,101z"/>
				<path class="st2" d="M343.5,103.1c-1.8,0-3.2,1.4-3.2,3.2c0,0.5,0.1,0.9,0.3,1.4l-8.4,6.2v27.5h2.2V115l7.7-5.6l-0.2-0.3
					c0.5,0.3,1.1,0.5,1.7,0.5c1.8,0,3.2-1.4,3.2-3.2S345.3,103.1,343.5,103.1z M343.5,107.4c-0.6,0-1.1-0.5-1.1-1.1
					c0-0.6,0.5-1.1,1.1-1.1c0.6,0,1.1,0.5,1.1,1.1C344.6,106.9,344.1,107.4,343.5,107.4z"/>
				<path class="st2" d="M345.7,177.3c-1.8,0-3.2,1.4-3.2,3.2c0,0.5,0.1,1,0.3,1.5l0,0l-4.3,4.3v3l5.9-5.9c0.4,0.2,0.9,0.3,1.4,0.3
					c1.8,0,3.2-1.4,3.2-3.2c0-1.8-1.4-3.2-3.2-3.2L345.7,177.3z M345.7,181.7c-0.6,0-1.1-0.5-1.1-1.1s0.5-1.1,1.1-1.1
					c0.6,0,1.1,0.5,1.1,1.1C346.8,181.2,346.3,181.6,345.7,181.7z"/>
				<path class="st2" d="M386.6,166.6c-1.8,0-3.2,1.4-3.2,3.2c0,0.5,0.1,1,0.3,1.4L367,187.9h-21.6l-7,7v3.1l7.9-7.9h21.6l17.4-17.4
					c0.4,0.2,0.9,0.3,1.4,0.3c1.8,0,3.2-1.4,3.2-3.2C389.9,168,388.4,166.6,386.6,166.6L386.6,166.6z M386.6,170.9
					c-0.6,0-1.1-0.5-1.1-1.1s0.5-1.1,1.1-1.1c0.6,0,1.1,0.5,1.1,1.1C387.7,170.4,387.2,170.9,386.6,170.9z"/>
				<path class="st2" d="M372.6,139.2l-15.7-15.7V114c1.7-0.6,2.6-2.4,2-4.1c-0.6-1.7-2.4-2.6-4.1-2c-1.7,0.6-2.6,2.4-2,4.1
					c0.3,0.9,1.1,1.6,2,2v10.3l15.7,15.7v16.4l-14.8,14.8c-0.4-0.2-0.9-0.3-1.4-0.3c-1.8,0-3.2,1.4-3.2,3.2c0,1.8,1.4,3.2,3.2,3.2
					s3.2-1.4,3.2-3.2c0-0.5-0.1-1-0.3-1.4l15.4-15.4V139.2z M355.8,112c-0.6,0-1.1-0.5-1.1-1.1c0-0.6,0.5-1.1,1.1-1.1
					c0.6,0,1.1,0.5,1.1,1.1C356.9,111.5,356.4,112,355.8,112L355.8,112L355.8,112z M354.3,175.2c-0.6,0-1.1-0.5-1.1-1.1
					s0.5-1.1,1.1-1.1c0.6,0,1.1,0.5,1.1,1.1C355.4,174.7,354.9,175.2,354.3,175.2L354.3,175.2z"/>
				<path class="st2" d="M359.7,143.5l-4.6-4.6c0.2-0.4,0.3-0.9,0.3-1.4c0-1.8-1.4-3.2-3.2-3.2c-1.8,0-3.2,1.4-3.2,3.2
					c0,1.8,1.4,3.2,3.2,3.2c0.5,0,0.9-0.1,1.4-0.3l4,4v7.7l-10.5,10.5c-0.4-0.2-0.9-0.3-1.4-0.3c-1.8,0-3.2,1.4-3.2,3.2
					c0,1.8,1.4,3.2,3.2,3.2c1.8,0,3.2-1.4,3.2-3.2c0-0.5-0.1-1-0.3-1.4l11.1-11.1V143.5z M352.2,138.5c-0.6,0-1.1-0.5-1.1-1.1
					c0-0.6,0.5-1.1,1.1-1.1c0.6,0,1.1,0.5,1.1,1.1C353.2,138,352.7,138.5,352.2,138.5L352.2,138.5z M345.7,166.6
					c-0.6,0-1.1-0.5-1.1-1.1c0-0.6,0.5-1.1,1.1-1.1c0.6,0,1.1,0.5,1.1,1.1C346.8,166.1,346.3,166.5,345.7,166.6L345.7,166.6z"/>
				<path class="st2" d="M365.1,198.9c-1.8,0-3.2,1.4-3.2,3.2c0,0.5,0.1,1,0.3,1.5l0,0l-10.6,10.6V253l-13.2,13.2v3.1l15.3-15.3V215
					l10-10c0.4,0.2,0.9,0.3,1.4,0.3c1.8,0,3.2-1.4,3.2-3.2C368.4,200.4,366.9,198.9,365.1,198.9L365.1,198.9z M365.1,203.2
					c-0.6,0-1.1-0.5-1.1-1.1s0.5-1.1,1.1-1.1c0.6,0,1.1,0.5,1.1,1.1C366.2,202.7,365.7,203.2,365.1,203.2z"/>
				<path class="st2" d="M393.1,198.9c-1.8,0-3.2,1.4-3.2,3.2c0,0.5,0.1,1,0.3,1.5l0,0l-23.5,23.5v38.8l-28.4,28.2v3.1l30.4-30.4
					v-38.8l22.9-22.9c0.4,0.2,0.9,0.3,1.4,0.3c1.8,0,3.2-1.4,3.2-3.2C396.3,200.3,394.9,198.9,393.1,198.9L393.1,198.9z
					 M393.1,203.2c-0.6,0-1.1-0.5-1.1-1.1s0.5-1.1,1.1-1.1s1.1,0.5,1.1,1.1C394.2,202.7,393.7,203.2,393.1,203.2z"/>
				<path class="st2" d="M148.3,282l-16.8-16.8c0.8-1.6,0.1-3.6-1.5-4.4c-1.6-0.8-3.6-0.1-4.4,1.5s-0.1,3.6,1.5,4.4
					c0.9,0.4,1.9,0.4,2.8,0l17.4,17.4h14.1V282H148.3z M128.7,264.9c-0.6,0-1.1-0.5-1.1-1.1c0-0.6,0.5-1.1,1.1-1.1
					c0.6,0,1.1,0.5,1.1,1.1C129.8,264.4,129.3,264.9,128.7,264.9L128.7,264.9z"/>
				<path class="st2" d="M145.9,264.9c-0.5,0-0.9,0.1-1.4,0.3l-14.8-14.8v-17.2l-16.6-15.7v-15.9c1.7-0.6,2.6-2.4,2-4.1
					c-0.6-1.7-2.4-2.6-4.1-2s-2.6,2.4-2,4.1c0.3,0.9,1,1.6,2,2v16.8l16.6,15.7v17.2l15.4,15.4c-0.8,1.6-0.1,3.5,1.5,4.3
					c1.6,0.8,3.5,0.1,4.3-1.5c0.8-1.6,0.1-3.5-1.5-4.3C146.9,265.1,146.4,264.9,145.9,264.9L145.9,264.9z M112.1,199.6
					c-0.6,0-1.1-0.5-1.1-1.1c0-0.6,0.5-1.1,1.1-1.1s1.1,0.5,1.1,1.1S112.7,199.6,112.1,199.6L112.1,199.6L112.1,199.6z M145.9,269.2
					c-0.6,0-1.1-0.5-1.1-1.1c0-0.6,0.5-1.1,1.1-1.1c0.6,0,1.1,0.5,1.1,1.1C147,268.8,146.5,269.2,145.9,269.2z"/>
				<path class="st2" d="M150.2,256.3c-0.5,0-0.9,0.1-1.4,0.3l-10.5-10.5v-7.7l4-4c0.4,0.2,0.9,0.3,1.4,0.3c1.8,0,3.2-1.4,3.2-3.2
					s-1.4-3.2-3.2-3.2c-1.8,0-3.2,1.4-3.2,3.2c0,0.5,0.1,1,0.3,1.4l-4.6,4.6v9.5l11.1,11.1c-0.8,1.6-0.1,3.5,1.5,4.3
					c1.6,0.8,3.5,0.1,4.3-1.5c0.8-1.6,0.1-3.5-1.5-4.3C151.2,256.4,150.7,256.3,150.2,256.3L150.2,256.3z M143.8,230.4
					c0.6,0,1.1,0.5,1.1,1.1c0,0.6-0.5,1.1-1.1,1.1s-1.1-0.5-1.1-1.1S143.2,230.4,143.8,230.4z M150.2,260.6c-0.6,0-1.1-0.5-1.1-1.1
					c0-0.6,0.5-1.1,1.1-1.1c0.6,0,1.1,0.5,1.1,1.1C151.3,260.1,150.8,260.6,150.2,260.6z"/>
				<path class="st2" d="M153.2,297.6c0.2-0.4,0.3-0.9,0.3-1.4c0-1.8-1.4-3.2-3.2-3.2c-1.8,0-3.2,1.4-3.2,3.2c0,1.8,1.4,3.2,3.2,3.2
					c0.5,0,1-0.1,1.4-0.3l10,10v-3L153.2,297.6z M150.2,297.3c-0.6,0-1.1-0.5-1.1-1.1c0-0.6,0.5-1.1,1.1-1.1c0.6,0,1.1,0.5,1.1,1.1
					C151.3,296.8,150.8,297.3,150.2,297.3L150.2,297.3z"/>
				<path class="st2" d="M208.2,109.1c-1.8,0-3.2,1.5-3.2,3.3c0,1.4,0.9,2.6,2.1,3v26.1h2.2v-26.1c1.7-0.6,2.5-2.5,1.9-4.1
					C210.7,109.9,209.5,109.1,208.2,109.1L208.2,109.1z M208.2,113.4c-0.6,0-1.1-0.5-1.1-1.1c0-0.6,0.5-1.1,1.1-1.1
					c0.6,0,1.1,0.5,1.1,1.1C209.2,112.9,208.8,113.4,208.2,113.4z"/>
				<path class="st2" d="M191.7,107.7c0.2-0.4,0.3-0.9,0.3-1.4c0-1.8-1.4-3.2-3.2-3.2c-1.8,0-3.2,1.4-3.2,3.2s1.4,3.2,3.2,3.2
					c0.5,0,0.9-0.1,1.4-0.3l3.5,3.5v28.7h2.2v-29.6L191.7,107.7z M188.8,107.4c-0.6,0-1.1-0.5-1.1-1.1c0-0.6,0.5-1.1,1.1-1.1
					s1.1,0.5,1.1,1.1C189.9,106.9,189.4,107.4,188.8,107.4L188.8,107.4z"/>
				<path class="st2" d="M187.8,127v-6l-6.8-6.8c0.2-0.4,0.3-0.9,0.3-1.4c0-1.8-1.4-3.2-3.2-3.2c-1.8,0-3.2,1.4-3.2,3.2
					s1.4,3.2,3.2,3.2c0.5,0,0.9-0.1,1.4-0.3l6.2,6.1v5.2c-1.7,0.6-2.5,2.5-1.9,4.1c0.5,1.3,1.7,2.1,3,2.1c1.8,0,3.2-1.5,3.2-3.3
					C189.9,128.7,189.1,127.5,187.8,127L187.8,127z M178.1,113.9c-0.6,0-1.1-0.5-1.1-1.1c0-0.6,0.5-1.1,1.1-1.1
					c0.6,0,1.1,0.5,1.1,1.1C179.2,113.4,178.7,113.9,178.1,113.9C178.1,113.9,178,113.9,178.1,113.9L178.1,113.9z M186.7,131.1
					c-0.6,0-1.1-0.5-1.1-1.1s0.5-1.1,1.1-1.1s1.1,0.5,1.1,1.1C187.8,130.7,187.3,131.2,186.7,131.1
					C186.7,131.1,186.7,131.1,186.7,131.1L186.7,131.1z"/>
				<path class="st2" d="M152.9,112c0.2-0.4,0.3-0.9,0.3-1.4c0-1.8-1.4-3.2-3.2-3.2c-1.8,0-3.2,1.4-3.2,3.2s1.4,3.2,3.2,3.2
					c0.5,0,0.9-0.1,1.4-0.3l14.3,14.3v13.6h2.2V127L152.9,112z M150,111.7c-0.6,0-1.1-0.5-1.1-1.1s0.5-1.1,1.1-1.1
					c0.6,0,1.1,0.5,1.1,1.1C151.1,111.3,150.6,111.7,150,111.7L150,111.7z"/>
				<path class="st2" d="M157.2,182c0.2-0.4,0.3-0.9,0.3-1.4c0-1.8-1.4-3.2-3.2-3.2c-1.8,0-3.2,1.4-3.2,3.2c0,1.8,1.4,3.2,3.2,3.2
					c0.5,0,0.9-0.1,1.4-0.3l5.9,5.9v-3.1L157.2,182z M154.3,181.7c-0.6,0-1.1-0.5-1.1-1.1c0-0.6,0.5-1.1,1.1-1.1s1.1,0.5,1.1,1.1
					C155.4,181.2,154.9,181.6,154.3,181.7L154.3,181.7z"/>
				<path class="st2" d="M154.6,187.9H133l-16.8-16.8c0.2-0.4,0.3-0.9,0.3-1.4c0-1.8-1.4-3.2-3.2-3.2s-3.2,1.4-3.2,3.2
					c0,1.8,1.4,3.2,3.2,3.2c0.5,0,0.9-0.1,1.4-0.3l17.4,17.4h21.6l7.9,7.9v-3.1L154.6,187.9z M113.4,170.9c-0.6,0-1.1-0.5-1.1-1.1
					s0.5-1.1,1.1-1.1c0.6,0,1.1,0.5,1.1,1.1C114.4,170.4,113.9,170.9,113.4,170.9L113.4,170.9z"/>
				<path class="st2" d="M145.7,170.9c-0.5,0-1,0.1-1.4,0.3l-14.8-14.8V140l15.7-15.7v-16.8c1.7-0.6,2.6-2.4,2-4.1
					c-0.6-1.7-2.4-2.6-4.1-2c-1.7,0.6-2.6,2.4-2,4.1c0.3,0.9,1.1,1.6,2,2v15.9l-15.7,15.7v18.1l15.4,15.4c-0.2,0.4-0.3,0.9-0.3,1.4
					c0,1.8,1.4,3.2,3.2,3.2c1.8,0,3.2-1.4,3.2-3.2C148.9,172.3,147.5,170.9,145.7,170.9L145.7,170.9z M144.2,103.4
					c0.6,0,1.1,0.5,1.1,1.1c0,0.6-0.5,1.1-1.1,1.1s-1.1-0.5-1.1-1.1S143.6,103.4,144.2,103.4z M145.7,175.2c-0.6,0-1.1-0.5-1.1-1.1
					c0-0.6,0.5-1.1,1.1-1.1s1.1,0.5,1.1,1.1C146.8,174.7,146.3,175.2,145.7,175.2z"/>
				<path class="st2" d="M154.3,162.2c-0.5,0-1,0.1-1.4,0.3l-10.5-10.5v-7.7l4-4c0.4,0.2,0.9,0.3,1.4,0.3c1.8,0,3.2-1.4,3.2-3.2
					c0-1.8-1.4-3.2-3.2-3.2c-1.8,0-3.2,1.4-3.2,3.2c0,0.5,0.1,0.9,0.3,1.4l-4.6,4.6v9.5l11.1,11.1c-0.2,0.4-0.3,0.9-0.3,1.4
					c0,1.8,1.4,3.2,3.2,3.2c1.8,0,3.2-1.4,3.2-3.2C157.5,163.7,156.1,162.2,154.3,162.2L154.3,162.2z M147.8,136.4
					c0.6,0,1.1,0.5,1.1,1.1c0,0.6-0.5,1.1-1.1,1.1c-0.6,0-1.1-0.5-1.1-1.1S147.3,136.4,147.8,136.4z M154.3,166.6
					c-0.6,0-1.1-0.5-1.1-1.1s0.5-1.1,1.1-1.1s1.1,0.5,1.1,1.1C155.4,166.1,154.9,166.5,154.3,166.6z"/>
				<path class="st2" d="M148.4,360.7v-38.8l-10.6-10.6c0.2-0.4,0.3-0.9,0.3-1.4c0-1.8-1.4-3.2-3.2-3.2c-1.8,0-3.2,1.4-3.2,3.2
					c0,1.8,1.4,3.2,3.2,3.2c0.5,0,0.9-0.1,1.4-0.3l10,10v38.8l15.3,15.3v-3.1L148.4,360.7z M134.9,311c-0.6,0-1.1-0.5-1.1-1.1
					c0-0.6,0.5-1.1,1.1-1.1c0.6,0,1.1,0.5,1.1,1.1C136,310.5,135.5,311,134.9,311L134.9,311z"/>
				<path class="st2" d="M140.4,343.5V331l-13.3-13.3c0.2-0.4,0.3-0.9,0.3-1.4c0-1.8-1.4-3.2-3.2-3.2s-3.2,1.4-3.2,3.2
					s1.4,3.2,3.2,3.2c0.5,0,0.9-0.1,1.4-0.3l12.6,12.6v11.6c-1.3,0.4-2.2,1.7-2.2,3c0,1.8,1.4,3.2,3.2,3.2c1.8,0,3.2-1.4,3.2-3.2
					C142.5,345.2,141.7,344,140.4,343.5L140.4,343.5z M124.2,317.5c-0.6,0-1.1-0.5-1.1-1.1s0.5-1.1,1.1-1.1s1.1,0.5,1.1,1.1
					C125.3,317,124.8,317.5,124.2,317.5C124.2,317.5,124.1,317.5,124.2,317.5L124.2,317.5z M139.3,347.6c-0.6,0-1.1-0.5-1.1-1.1
					s0.5-1.1,1.1-1.1s1.1,0.5,1.1,1.1C140.4,347.2,139.9,347.7,139.3,347.6C139.3,347.6,139.2,347.6,139.3,347.6L139.3,347.6z"/>
				<path class="st2" d="M133.3,373.6v-38.8l-23.5-23.5c0.2-0.4,0.3-0.9,0.3-1.4c0-1.8-1.4-3.2-3.2-3.2s-3.2,1.4-3.2,3.2
					c0,1.8,1.4,3.2,3.2,3.2c0.5,0,0.9-0.1,1.4-0.3l22.9,22.9v38.8l30.4,30.4v-3.1L133.3,373.6z M106.9,311c-0.6,0-1.1-0.5-1.1-1.1
					c0-0.6,0.5-1.1,1.1-1.1c0.6,0,1.1,0.5,1.1,1.1C108,310.5,107.5,311,106.9,311L106.9,311z"/>
				<path class="st2" d="M245.1,119.5c0.2-0.4,0.3-0.9,0.3-1.4c0-1.8-1.4-3.2-3.2-3.2c-1.8,0-3.2,1.4-3.2,3.2s1.4,3.2,3.2,3.2
					c0.5,0,0.9-0.1,1.4-0.3l4,4v5.6l-7.1,7.1v3.8h2.2v-2.9l7.1-7.1v-7.4L245.1,119.5z M242.2,119.2c-0.6,0-1.1-0.5-1.1-1.1
					c0-0.6,0.5-1.1,1.1-1.1c0.6,0,1.1,0.5,1.1,1.1C243.3,118.7,242.8,119.1,242.2,119.2L242.2,119.2z"/>
				<path class="st2" d="M218.9,126.3c-1.8,0-3.2,1.5-3.2,3.3c0,1.4,0.9,2.6,2.1,3v8.8h2.2v-8.8c1.7-0.6,2.5-2.5,1.9-4.1
					C221.5,127.2,220.3,126.3,218.9,126.3z M218.9,130.6c-0.6,0-1.1-0.5-1.1-1.1c0-0.6,0.5-1.1,1.1-1.1s1.1,0.5,1.1,1.1
					S219.5,130.6,218.9,130.6z"/>
				<path class="st2" d="M281.5,128.5c-1.8,0-3.2,1.5-3.2,3.3c0,1.4,0.9,2.6,2.1,3v6.7h2.2v-6.7c1.7-0.6,2.5-2.5,1.9-4.1
					C284,129.3,282.8,128.5,281.5,128.5z M281.5,132.8c-0.6,0-1.1-0.5-1.1-1.1c0-0.6,0.5-1.1,1.1-1.1c0.6,0,1.1,0.5,1.1,1.1
					S282.1,132.8,281.5,132.8z"/>
			</g>
		</g>
		<g id="Layer_194">
			<g>
				<path class="st2" d="M329.8,172.7H170.2c-0.6,0-1.1,0.5-1.1,1.1v219.9c0,0.6,0.5,1.1,1.1,1.1h159.5c0.6,0,1.1-0.5,1.1-1.1V173.8
					C330.8,173.2,330.3,172.7,329.8,172.7z M328.7,174.8v131.5H171.3V174.8H328.7z M275.9,371c-0.6,0-1.1,0.5-1.1,1.1v3.2h-49.6
					v-3.2c0-0.6-0.5-1.1-1.1-1.1s-1.1,0.5-1.1,1.1v3.2h-41v-6.5h135.8v6.5h-41v-3.2C276.9,371.5,276.5,371,275.9,371z M319,366.7
					H181c-0.6,0-1.1,0.5-1.1,1.1v7.5h-8.6v-15.1h157.4v15.1h-8.6v-7.5C320.1,367.2,319.6,366.7,319,366.7z M171.3,358.1v-23.7h157.4
					v23.7H171.3z M171.3,332.2v-23.7h157.4v23.7H171.3z M317.9,392.6h-41v-3.2c0-0.6-0.5-1.1-1.1-1.1c-0.6,0-1.1,0.5-1.1,1.1v3.2
					h-49.6v-3.2c0-0.6-0.5-1.1-1.1-1.1s-1.1,0.5-1.1,1.1v3.2h-41v-6.5h135.8V392.6z M320.1,392.6V385c0-0.6-0.5-1.1-1.1-1.1H181
					c-0.6,0-1.1,0.5-1.1,1.1v7.5h-8.6v-15.1h157.4v15.1H320.1z"/>
				<path class="st2" d="M183.2,166.2h49.6c0.6,0,1.1-0.5,1.1-1.1s-0.5-1.1-1.1-1.1h-49.6c-0.6,0-1.1,0.5-1.1,1.1
					S182.6,166.2,183.2,166.2z"/>
				<path class="st2" d="M267.2,166.2h49.6c0.6,0,1.1-0.5,1.1-1.1s-0.5-1.1-1.1-1.1h-49.6c-0.6,0-1.1,0.5-1.1,1.1
					S266.6,166.2,267.2,166.2z"/>
				<path class="st2" d="M183.2,161.9h49.6c0.6,0,1.1-0.5,1.1-1.1s-0.5-1.1-1.1-1.1h-49.6c-0.6,0-1.1,0.5-1.1,1.1
					S182.6,161.9,183.2,161.9z"/>
				<path class="st2" d="M267.2,161.9h49.6c0.6,0,1.1-0.5,1.1-1.1s-0.5-1.1-1.1-1.1h-49.6c-0.6,0-1.1,0.5-1.1,1.1
					S266.6,161.9,267.2,161.9z"/>
				<path class="st2" d="M183.2,157.6h49.6c0.6,0,1.1-0.5,1.1-1.1c0-0.6-0.5-1.1-1.1-1.1h-49.6c-0.6,0-1.1,0.5-1.1,1.1
					C182.1,157.1,182.6,157.6,183.2,157.6z"/>
				<path class="st2" d="M267.2,157.6h49.6c0.6,0,1.1-0.5,1.1-1.1c0-0.6-0.5-1.1-1.1-1.1h-49.6c-0.6,0-1.1,0.5-1.1,1.1
					C266.2,157.1,266.6,157.6,267.2,157.6z"/>
				<path class="st2" d="M183.2,153.3h49.6c0.6,0,1.1-0.5,1.1-1.1s-0.5-1.1-1.1-1.1h-49.6c-0.6,0-1.1,0.5-1.1,1.1
					S182.6,153.3,183.2,153.3z"/>
				<path class="st2" d="M267.2,153.3h49.6c0.6,0,1.1-0.5,1.1-1.1s-0.5-1.1-1.1-1.1h-49.6c-0.6,0-1.1,0.5-1.1,1.1
					S266.6,153.3,267.2,153.3z"/>
				<path class="st2" d="M344.8,407.7h-6.5V143.6c0-1.2-1-2.2-2.2-2.2H163.8c-1.2,0-2.2,1-2.2,2.2v264.1h-15.5
					c-0.6,0-1.1,0.5-1.1,1.1c0,0.6,0.5,1.1,1.1,1.1h198.8c0.6,0,1.1-0.5,1.1-1.1C345.9,408.1,345.4,407.7,344.8,407.7z M165.9,145.7
					h168.2v261.9H165.9V145.7z"/>
				<path class="st2" d="M357.8,407.7h-8.6c-0.6,0-1.1,0.5-1.1,1.1c0,0.6,0.5,1.1,1.1,1.1h8.6c0.6,0,1.1-0.5,1.1-1.1
					C358.9,408.1,358.4,407.7,357.8,407.7z"/>
				<path class="st2" d="M323.4,345.1h-42.7l-4-4c-0.2-0.2-0.5-0.3-0.8-0.3h-51.7c-0.3,0-0.6,0.1-0.8,0.3l-4,4h-42.7
					c-0.6,0-1.1,0.5-1.1,1.1c0,0.6,0.5,1.1,1.1,1.1h42.7l4,4c0.2,0.2,0.5,0.3,0.8,0.3H276c0.3,0,0.6-0.1,0.8-0.3l4-4h42.7
					c0.6,0,1.1-0.5,1.1-1.1C324.4,345.6,324,345.1,323.4,345.1z M275.5,349.5h-50.9l-3.2-3.2l3.2-3.2h50.9l3.2,3.2L275.5,349.5z"/>
				<path class="st2" d="M271.6,345.1h-43.1c-0.6,0-1.1,0.5-1.1,1.1c0,0.6,0.5,1.1,1.1,1.1h43.1c0.6,0,1.1-0.5,1.1-1.1
					C272.7,345.6,272.2,345.1,271.6,345.1z"/>
				<path class="st2" d="M323.4,319.3h-42.7l-4-4c-0.2-0.2-0.5-0.3-0.8-0.3h-51.7c-0.3,0-0.6,0.1-0.8,0.3l-4,4h-42.7
					c-0.6,0-1.1,0.5-1.1,1.1c0,0.6,0.5,1.1,1.1,1.1h42.7l4,4c0.2,0.2,0.5,0.3,0.8,0.3H276c0.3,0,0.6-0.1,0.8-0.3l4-4h42.7
					c0.6,0,1.1-0.5,1.1-1.1C324.4,319.8,324,319.3,323.4,319.3z M275.5,323.6h-50.9l-3.2-3.2l3.2-3.2h50.9l3.2,3.2L275.5,323.6z"/>
				<path class="st2" d="M271.6,319.3h-43.1c-0.6,0-1.1,0.5-1.1,1.1c0,0.6,0.5,1.1,1.1,1.1h43.1c0.6,0,1.1-0.5,1.1-1.1
					C272.7,319.8,272.2,319.3,271.6,319.3z"/>
				<path class="st2" d="M265.1,362.3h-30.2c-0.6,0-1.1,0.5-1.1,1.1c0,0.6,0.5,1.1,1.1,1.1h30.2c0.6,0,1.1-0.5,1.1-1.1
					C266.2,362.7,265.7,362.3,265.1,362.3z"/>
				<path class="st2" d="M312.6,362.3h-30.2c-0.6,0-1.1,0.5-1.1,1.1c0,0.6,0.5,1.1,1.1,1.1h30.2c0.6,0,1.1-0.5,1.1-1.1
					C313.6,362.7,313.1,362.3,312.6,362.3z"/>
				<path class="st2" d="M217.7,362.3h-30.2c-0.6,0-1.1,0.5-1.1,1.1c0,0.6,0.5,1.1,1.1,1.1h30.2c0.6,0,1.1-0.5,1.1-1.1
					C218.8,362.7,218.3,362.3,217.7,362.3z"/>
				<path class="st2" d="M265.1,379.5h-30.2c-0.6,0-1.1,0.5-1.1,1.1s0.5,1.1,1.1,1.1h30.2c0.6,0,1.1-0.5,1.1-1.1
					S265.7,379.5,265.1,379.5z"/>
				<path class="st2" d="M312.6,379.5h-30.2c-0.6,0-1.1,0.5-1.1,1.1s0.5,1.1,1.1,1.1h30.2c0.6,0,1.1-0.5,1.1-1.1
					S313.1,379.5,312.6,379.5z"/>
				<path class="st2" d="M217.7,379.5h-30.2c-0.6,0-1.1,0.5-1.1,1.1s0.5,1.1,1.1,1.1h30.2c0.6,0,1.1-0.5,1.1-1.1
					S218.3,379.5,217.7,379.5z"/>
				<circle class="st2" cx="174.5" cy="363.5" r="2.2"/>
				<circle class="st2" cx="325.4" cy="363.5" r="2.2"/>
				<circle class="st2" cx="174.5" cy="380.7" r="2.2"/>
				<circle class="st2" cx="325.4" cy="380.7" r="2.2"/>
				<path class="st2" d="M174.5,217.7h150.9c0.6,0,1.1-0.5,1.1-1.1v-38.8c0-0.6-0.5-1.1-1.1-1.1H174.5c-0.6,0-1.1,0.5-1.1,1.1v38.8
					C173.5,217.2,173.9,217.7,174.5,217.7z M175.6,187.5h4.3v9.8c0,0.8,0.3,1.6,0.9,2.2c0.6,0.6,1.5,1,2.3,0.9l0,0H222
					c1.8,0,3.2-1.4,3.2-3.1v-9.7h2.2v9.8c0,0.8,0.3,1.6,0.9,2.2c0.6,0.6,1.5,1,2.3,0.9l0,0h51.7c1.8,0,3.2-1.4,3.2-3.1v-9.7h4.3v28
					h-4.3v-9.7c0-1.8-1.5-3.1-3.2-3.1h-51.7l0,0c-0.9,0-1.7,0.3-2.3,0.9c-0.6,0.6-0.9,1.3-0.9,2.2v9.8h-2.2v-9.7
					c0-1.8-1.5-3.1-3.2-3.1h-38.8l0,0c-0.9,0-1.7,0.3-2.3,0.9c-0.6,0.6-0.9,1.3-0.9,2.2v9.8h-4.3V187.5z M186.4,187.5v2.2h-1.1
					c-0.6,0-1.1,0.5-1.1,1.1v4.3c0,0.6,0.5,1.1,1.1,1.1h8.6c0.6,0,1.1-0.5,1.1-1.1v-4.3c0-0.6-0.5-1.1-1.1-1.1h-1.1v-2.2h6.5v2.2
					h-1.1c-0.6,0-1.1,0.5-1.1,1.1v4.3c0,0.6,0.5,1.1,1.1,1.1h8.6c0.6,0,1.1-0.5,1.1-1.1v-4.3c0-0.6-0.5-1.1-1.1-1.1h-1.1v-2.2h6.5
					v2.2h-1.1c-0.6,0-1.1,0.5-1.1,1.1v4.3c0,0.6,0.5,1.1,1.1,1.1h8.6c0.6,0,1.1-0.5,1.1-1.1v-4.3c0-0.6-0.5-1.1-1.1-1.1h-1.1v-2.2
					h4.3v9.7c0,0.6-0.5,1-1.1,1h-38.8l0,0c-0.3,0-0.6-0.1-0.8-0.3c-0.2-0.2-0.3-0.4-0.3-0.6v-9.8L186.4,187.5z M190.7,187.5v3.2
					c0,0.6,0.5,1.1,1.1,1.1h1.1v2.2h-6.5v-2.2h1.1c0.6,0,1.1-0.5,1.1-1.1v-3.2H190.7z M203.6,187.5v3.2c0,0.6,0.5,1.1,1.1,1.1h1.1
					v2.2h-6.5v-2.2h1.1c0.6,0,1.1-0.5,1.1-1.1v-3.2H203.6z M216.6,187.5v3.2c0,0.6,0.5,1.1,1.1,1.1h1.1v2.2h-6.5v-2.2h1.1
					c0.6,0,1.1-0.5,1.1-1.1v-3.2H216.6z M233.8,187.5v2.2h-1.1c-0.6,0-1.1,0.5-1.1,1.1v4.3c0,0.6,0.5,1.1,1.1,1.1h8.6
					c0.6,0,1.1-0.5,1.1-1.1v-4.3c0-0.6-0.5-1.1-1.1-1.1h-1.1v-2.2h6.5v2.2h-1.1c-0.6,0-1.1,0.5-1.1,1.1v4.3c0,0.6,0.5,1.1,1.1,1.1
					h8.6c0.6,0,1.1-0.5,1.1-1.1v-4.3c0-0.6-0.5-1.1-1.1-1.1h-1.1v-2.2h6.5v2.2h-1.1c-0.6,0-1.1,0.5-1.1,1.1v4.3
					c0,0.6,0.5,1.1,1.1,1.1h8.6c0.6,0,1.1-0.5,1.1-1.1v-4.3c0-0.6-0.5-1.1-1.1-1.1h-1.1v-2.2h6.5v2.2h-1.1c-0.6,0-1.1,0.5-1.1,1.1
					v4.3c0,0.6,0.5,1.1,1.1,1.1h8.6c0.6,0,1.1-0.5,1.1-1.1v-4.3c0-0.6-0.5-1.1-1.1-1.1h-1.1v-2.2h4.3v9.7c0,0.6-0.5,1-1.1,1h-51.7
					l0,0c-0.3,0-0.6-0.1-0.8-0.3c-0.2-0.2-0.3-0.4-0.3-0.6v-9.8L233.8,187.5z M238.1,187.5v3.2c0,0.6,0.5,1.1,1.1,1.1h1.1v2.2h-6.5
					v-2.2h1.1c0.6,0,1.1-0.5,1.1-1.1v-3.2H238.1z M251.1,187.5v3.2c0,0.6,0.5,1.1,1.1,1.1h1.1v2.2h-6.5v-2.2h1.1
					c0.6,0,1.1-0.5,1.1-1.1v-3.2H251.1z M264,187.5v3.2c0,0.6,0.5,1.1,1.1,1.1h1.1v2.2h-6.5v-2.2h1.1c0.6,0,1.1-0.5,1.1-1.1v-3.2
					H264z M276.9,187.5v3.2c0,0.6,0.5,1.1,1.1,1.1h1.1v2.2h-6.5v-2.2h1.1c0.6,0,1.1-0.5,1.1-1.1v-3.2H276.9z M274.8,212.3
					c0-0.6-0.5-1.1-1.1-1.1h-1.1v-2.2h6.5v2.2H278c-0.6,0-1.1,0.5-1.1,1.1v3.2h-2.2V212.3z M279.1,213.4h1.1c0.6,0,1.1-0.5,1.1-1.1
					V208c0-0.6-0.5-1.1-1.1-1.1h-8.6c-0.6,0-1.1,0.5-1.1,1.1v4.3c0,0.6,0.5,1.1,1.1,1.1h1.1v2.2h-6.5v-2.2h1.1
					c0.6,0,1.1-0.5,1.1-1.1V208c0-0.6-0.5-1.1-1.1-1.1h-8.6c-0.6,0-1.1,0.5-1.1,1.1v4.3c0,0.6,0.5,1.1,1.1,1.1h1.1v2.2h-6.5v-2.2
					h1.1c0.6,0,1.1-0.5,1.1-1.1V208c0-0.6-0.5-1.1-1.1-1.1h-8.6c-0.6,0-1.1,0.5-1.1,1.1v4.3c0,0.6,0.5,1.1,1.1,1.1h1.1v2.2h-6.5
					v-2.2h1.1c0.6,0,1.1-0.5,1.1-1.1V208c0-0.6-0.5-1.1-1.1-1.1h-8.6c-0.6,0-1.1,0.5-1.1,1.1v4.3c0,0.6,0.5,1.1,1.1,1.1h1.1v2.2
					h-4.3v-9.9c0-0.2,0.1-0.5,0.3-0.6c0.2-0.2,0.5-0.3,0.8-0.3l0,0h51.7c0.6,0,1,0.4,1.1,1v9.7h-4.3V213.4z M261.8,212.3
					c0-0.6-0.5-1.1-1.1-1.1h-1.1v-2.2h6.5v2.2h-1.1c-0.6,0-1.1,0.5-1.1,1.1v3.2h-2.2V212.3z M248.9,212.3c0-0.6-0.5-1.1-1.1-1.1
					h-1.1v-2.2h6.5v2.2h-1.1c-0.6,0-1.1,0.5-1.1,1.1v3.2h-2.2V212.3z M236,212.3c0-0.6-0.5-1.1-1.1-1.1h-1.1v-2.2h6.5v2.2h-1.1
					c-0.6,0-1.1,0.5-1.1,1.1v3.2H236V212.3z M214.4,212.3c0-0.6-0.5-1.1-1.1-1.1h-1.1v-2.2h6.5v2.2h-1.1c-0.6,0-1.1,0.5-1.1,1.1v3.2
					h-2.2V212.3z M218.7,213.4h1.1c0.6,0,1.1-0.5,1.1-1.1V208c0-0.6-0.5-1.1-1.1-1.1h-8.6c-0.6,0-1.1,0.5-1.1,1.1v4.3
					c0,0.6,0.5,1.1,1.1,1.1h1.1v2.2h-6.5v-2.2h1.1c0.6,0,1.1-0.5,1.1-1.1V208c0-0.6-0.5-1.1-1.1-1.1h-8.6c-0.6,0-1.1,0.5-1.1,1.1
					v4.3c0,0.6,0.5,1.1,1.1,1.1h1.1v2.2h-6.5v-2.2h1.1c0.6,0,1.1-0.5,1.1-1.1V208c0-0.6-0.5-1.1-1.1-1.1h-8.6
					c-0.6,0-1.1,0.5-1.1,1.1v4.3c0,0.6,0.5,1.1,1.1,1.1h1.1v2.2h-4.3v-9.9c0-0.2,0.1-0.5,0.3-0.6c0.2-0.2,0.5-0.3,0.8-0.3l0,0H222
					c0.6,0,1,0.4,1.1,1v9.7h-4.3V213.4z M201.5,212.3c0-0.6-0.5-1.1-1.1-1.1h-1.1v-2.2h6.5v2.2h-1.1c-0.6,0-1.1,0.5-1.1,1.1v3.2
					h-2.2V212.3z M188.5,212.3c0-0.6-0.5-1.1-1.1-1.1h-1.1v-2.2h6.5v2.2h-1.1c-0.6,0-1.1,0.5-1.1,1.1v3.2h-2.2V212.3z M292,215.6
					v-15.1h32.3v15.1H292z M324.4,198.3H292v-19.4h32.3V198.3z M289.9,178.9v6.5H175.6v-6.5H289.9z"/>
				<rect x="178.9" y="181.1" class="st2" width="4.3" height="2.2"/>
				<rect x="185.4" y="181.1" class="st2" width="2.2" height="2.2"/>
				<rect x="189.7" y="181.1" class="st2" width="2.2" height="2.2"/>
				<rect x="273.8" y="181.1" class="st2" width="12.9" height="2.2"/>
				<rect x="256.5" y="181.1" class="st2" width="12.9" height="2.2"/>
				<path class="st2" d="M295.3,196.2h25.9c0.6,0,1.1-0.5,1.1-1.1v-12.9c0-0.6-0.5-1.1-1.1-1.1h-25.9c-0.6,0-1.1,0.5-1.1,1.1v12.9
					C294.2,195.7,294.7,196.2,295.3,196.2z M296.3,191.8h2.2v2.2h-2.2V191.8z M315.7,189.7h-2.2v-2.2h2.2V189.7z M317.9,187.5h2.2
					v2.2h-2.2V187.5z M305,191.8h2.2v2.2H305V191.8z M302.8,194h-2.2v-2.2h2.2V194z M307.1,189.7H305v-2.2h2.2V189.7z M309.3,187.5
					h2.2v2.2h-2.2V187.5z M309.3,191.8h2.2v2.2h-2.2V191.8z M313.6,191.8h2.2v2.2h-2.2V191.8z M313.6,185.4v-2.2h2.2v2.2H313.6z
					 M311.4,185.4h-2.2v-2.2h2.2V185.4z M307.1,185.4H305v-2.2h2.2V185.4z M302.8,185.4h-2.2v-2.2h2.2V185.4z M302.8,187.5v2.2h-2.2
					v-2.2H302.8z M298.5,189.7h-2.2v-2.2h2.2V189.7z M317.9,194v-2.2h2.2v2.2H317.9z M320.1,185.4h-2.2v-2.2h2.2V185.4z
					 M298.5,183.2v2.2h-2.2v-2.2H298.5z"/>
				<path class="st2" d="M301.7,202.6h-4.3c-0.6,0-1.1,0.5-1.1,1.1v8.6c0,0.6,0.5,1.1,1.1,1.1h4.3c0.6,0,1.1-0.5,1.1-1.1v-8.6
					C302.8,203.1,302.3,202.6,301.7,202.6z M300.7,211.3h-2.2v-6.5h2.2V211.3z"/>
				<path class="st2" d="M310.4,202.6H306c-0.6,0-1.1,0.5-1.1,1.1v8.6c0,0.6,0.5,1.1,1.1,1.1h4.3c0.6,0,1.1-0.5,1.1-1.1v-8.6
					C311.4,203.1,310.9,202.6,310.4,202.6z M309.3,211.3h-2.2v-6.5h2.2V211.3z"/>
				<path class="st2" d="M319,202.6h-4.3c-0.6,0-1.1,0.5-1.1,1.1v8.6c0,0.6,0.5,1.1,1.1,1.1h4.3c0.6,0,1.1-0.5,1.1-1.1v-8.6
					C320.1,203.1,319.6,202.6,319,202.6z M317.9,211.3h-2.2v-6.5h2.2V211.3z"/>
				<path class="st2" d="M174.5,260.8h150.9c0.6,0,1.1-0.5,1.1-1.1V221c0-0.6-0.5-1.1-1.1-1.1H174.5c-0.6,0-1.1,0.5-1.1,1.1v38.8
					C173.5,260.4,173.9,260.8,174.5,260.8z M175.6,230.7h4.3v9.8c0,0.8,0.3,1.6,0.9,2.2c0.6,0.6,1.5,1,2.3,0.9l0,0H222
					c1.8,0,3.2-1.4,3.2-3.1v-9.7h2.2v9.8c0,0.8,0.3,1.6,0.9,2.2c0.6,0.6,1.5,1,2.3,0.9l0,0h51.7c1.8,0,3.2-1.4,3.2-3.1v-9.7h4.3v28
					h-4.3V249c0-1.8-1.5-3.1-3.2-3.1h-51.7l0,0c-0.9,0-1.7,0.3-2.3,0.9c-0.6,0.6-0.9,1.3-0.9,2.2v9.8h-2.2v-9.7
					c0-1.8-1.5-3.2-3.2-3.1h-38.8l0,0c-0.9,0-1.7,0.3-2.3,0.9c-0.6,0.6-0.9,1.3-0.9,2.2v9.8h-4.3V230.7z M186.4,230.7v2.2h-1.1
					c-0.6,0-1.1,0.5-1.1,1.1v4.3c0,0.6,0.5,1.1,1.1,1.1h8.6c0.6,0,1.1-0.5,1.1-1.1v-4.3c0-0.6-0.5-1.1-1.1-1.1h-1.1v-2.2h6.5v2.2
					h-1.1c-0.6,0-1.1,0.5-1.1,1.1v4.3c0,0.6,0.5,1.1,1.1,1.1h8.6c0.6,0,1.1-0.5,1.1-1.1v-4.3c0-0.6-0.5-1.1-1.1-1.1h-1.1v-2.2h6.5
					v2.2h-1.1c-0.6,0-1.1,0.5-1.1,1.1v4.3c0,0.6,0.5,1.1,1.1,1.1h8.6c0.6,0,1.1-0.5,1.1-1.1v-4.3c0-0.6-0.5-1.1-1.1-1.1h-1.1v-2.2
					h4.3v9.7c0,0.6-0.5,1-1.1,1h-38.8l0,0c-0.3,0-0.6-0.1-0.8-0.3c-0.2-0.2-0.3-0.4-0.3-0.6v-9.8L186.4,230.7z M190.7,230.7v3.2
					c0,0.6,0.5,1.1,1.1,1.1h1.1v2.2h-6.5V235h1.1c0.6,0,1.1-0.5,1.1-1.1v-3.2H190.7z M203.6,230.7v3.2c0,0.6,0.5,1.1,1.1,1.1h1.1
					v2.2h-6.5V235h1.1c0.6,0,1.1-0.5,1.1-1.1v-3.2H203.6z M216.6,230.7v3.2c0,0.6,0.5,1.1,1.1,1.1h1.1v2.2h-6.5V235h1.1
					c0.6,0,1.1-0.5,1.1-1.1v-3.2H216.6z M233.8,230.7v2.2h-1.1c-0.6,0-1.1,0.5-1.1,1.1v4.3c0,0.6,0.5,1.1,1.1,1.1h8.6
					c0.6,0,1.1-0.5,1.1-1.1v-4.3c0-0.6-0.5-1.1-1.1-1.1h-1.1v-2.2h6.5v2.2h-1.1c-0.6,0-1.1,0.5-1.1,1.1v4.3c0,0.6,0.5,1.1,1.1,1.1
					h8.6c0.6,0,1.1-0.5,1.1-1.1v-4.3c0-0.6-0.5-1.1-1.1-1.1h-1.1v-2.2h6.5v2.2h-1.1c-0.6,0-1.1,0.5-1.1,1.1v4.3
					c0,0.6,0.5,1.1,1.1,1.1h8.6c0.6,0,1.1-0.5,1.1-1.1v-4.3c0-0.6-0.5-1.1-1.1-1.1h-1.1v-2.2h6.5v2.2h-1.1c-0.6,0-1.1,0.5-1.1,1.1
					v4.3c0,0.6,0.5,1.1,1.1,1.1h8.6c0.6,0,1.1-0.5,1.1-1.1v-4.3c0-0.6-0.5-1.1-1.1-1.1h-1.1v-2.2h4.3v9.7c0,0.6-0.5,1-1.1,1h-51.7
					l0,0c-0.3,0-0.6-0.1-0.8-0.3c-0.2-0.2-0.3-0.4-0.3-0.6v-9.8L233.8,230.7z M238.1,230.7v3.2c0,0.6,0.5,1.1,1.1,1.1h1.1v2.2h-6.5
					V235h1.1c0.6,0,1.1-0.5,1.1-1.1v-3.2H238.1z M251.1,230.7v3.2c0,0.6,0.5,1.1,1.1,1.1h1.1v2.2h-6.5V235h1.1
					c0.6,0,1.1-0.5,1.1-1.1v-3.2H251.1z M264,230.7v3.2c0,0.6,0.5,1.1,1.1,1.1h1.1v2.2h-6.5V235h1.1c0.6,0,1.1-0.5,1.1-1.1v-3.2H264
					z M276.9,230.7v3.2c0,0.6,0.5,1.1,1.1,1.1h1.1v2.2h-6.5V235h1.1c0.6,0,1.1-0.5,1.1-1.1v-3.2H276.9z M274.8,255.4
					c0-0.6-0.5-1.1-1.1-1.1h-1.1v-2.2h6.5v2.2H278c-0.6,0-1.1,0.5-1.1,1.1v3.2h-2.2V255.4z M279.1,256.5h1.1c0.6,0,1.1-0.5,1.1-1.1
					v-4.3c0-0.6-0.5-1.1-1.1-1.1h-8.6c-0.6,0-1.1,0.5-1.1,1.1v4.3c0,0.6,0.5,1.1,1.1,1.1h1.1v2.2h-6.5v-2.2h1.1
					c0.6,0,1.1-0.5,1.1-1.1v-4.3c0-0.6-0.5-1.1-1.1-1.1h-8.6c-0.6,0-1.1,0.5-1.1,1.1v4.3c0,0.6,0.5,1.1,1.1,1.1h1.1v2.2h-6.5v-2.2
					h1.1c0.6,0,1.1-0.5,1.1-1.1v-4.3c0-0.6-0.5-1.1-1.1-1.1h-8.6c-0.6,0-1.1,0.5-1.1,1.1v4.3c0,0.6,0.5,1.1,1.1,1.1h1.1v2.2h-6.5
					v-2.2h1.1c0.6,0,1.1-0.5,1.1-1.1v-4.3c0-0.6-0.5-1.1-1.1-1.1h-8.6c-0.6,0-1.1,0.5-1.1,1.1v4.3c0,0.6,0.5,1.1,1.1,1.1h1.1v2.2
					h-4.3v-9.9c0-0.2,0.1-0.5,0.3-0.6c0.2-0.2,0.5-0.3,0.8-0.3l0,0h51.7c0.6,0,1,0.4,1.1,1v9.7h-4.3V256.5z M261.8,255.4
					c0-0.6-0.5-1.1-1.1-1.1h-1.1v-2.2h6.5v2.2h-1.1c-0.6,0-1.1,0.5-1.1,1.1v3.2h-2.2V255.4z M248.9,255.4c0-0.6-0.5-1.1-1.1-1.1
					h-1.1v-2.2h6.5v2.2h-1.1c-0.6,0-1.1,0.5-1.1,1.1v3.2h-2.2V255.4z M236,255.4c0-0.6-0.5-1.1-1.1-1.1h-1.1v-2.2h6.5v2.2h-1.1
					c-0.6,0-1.1,0.5-1.1,1.1v3.2H236V255.4z M214.4,255.4c0-0.6-0.5-1.1-1.1-1.1h-1.1v-2.2h6.5v2.2h-1.1c-0.6,0-1.1,0.5-1.1,1.1v3.2
					h-2.2V255.4z M218.7,256.5h1.1c0.6,0,1.1-0.5,1.1-1.1v-4.3c0-0.6-0.5-1.1-1.1-1.1h-8.6c-0.6,0-1.1,0.5-1.1,1.1v4.3
					c0,0.6,0.5,1.1,1.1,1.1h1.1v2.2h-6.5v-2.2h1.1c0.6,0,1.1-0.5,1.1-1.1v-4.3c0-0.6-0.5-1.1-1.1-1.1h-8.6c-0.6,0-1.1,0.5-1.1,1.1
					v4.3c0,0.6,0.5,1.1,1.1,1.1h1.1v2.2h-6.5v-2.2h1.1c0.6,0,1.1-0.5,1.1-1.1v-4.3c0-0.6-0.5-1.1-1.1-1.1h-8.6
					c-0.6,0-1.1,0.5-1.1,1.1v4.3c0,0.6,0.5,1.1,1.1,1.1h1.1v2.2h-4.3v-9.9c0-0.2,0.1-0.5,0.3-0.6c0.2-0.2,0.5-0.3,0.8-0.3l0,0H222
					c0.6,0,1,0.4,1.1,1v9.7h-4.3V256.5z M201.5,255.4c0-0.6-0.5-1.1-1.1-1.1h-1.1v-2.2h6.5v2.2h-1.1c-0.6,0-1.1,0.5-1.1,1.1v3.2
					h-2.2V255.4z M188.5,255.4c0-0.6-0.5-1.1-1.1-1.1h-1.1v-2.2h6.5v2.2h-1.1c-0.6,0-1.1,0.5-1.1,1.1v3.2h-2.2V255.4z M292,258.7
					v-15.1h32.3v15.1H292z M324.4,241.4H292V222h32.3V241.4z M289.9,222v6.5H175.6V222H289.9z"/>
				<rect x="178.9" y="224.2" class="st2" width="4.3" height="2.2"/>
				<rect x="185.4" y="224.2" class="st2" width="2.2" height="2.2"/>
				<rect x="189.7" y="224.2" class="st2" width="2.2" height="2.2"/>
				<rect x="273.8" y="224.2" class="st2" width="12.9" height="2.2"/>
				<rect x="256.5" y="224.2" class="st2" width="12.9" height="2.2"/>
				<path class="st2" d="M295.3,239.3h25.9c0.6,0,1.1-0.5,1.1-1.1v-12.9c0-0.6-0.5-1.1-1.1-1.1h-25.9c-0.6,0-1.1,0.5-1.1,1.1v12.9
					C294.2,238.8,294.7,239.3,295.3,239.3z M296.3,235h2.2v2.2h-2.2V235z M315.7,232.8h-2.2v-2.2h2.2V232.8z M317.9,230.7h2.2v2.2
					h-2.2V230.7z M305,235h2.2v2.2H305V235z M302.8,237.1h-2.2V235h2.2V237.1z M307.1,232.8H305v-2.2h2.2V232.8z M309.3,230.7h2.2
					v2.2h-2.2V230.7z M309.3,235h2.2v2.2h-2.2V235z M313.6,235h2.2v2.2h-2.2V235z M313.6,228.5v-2.2h2.2v2.2H313.6z M311.4,228.5
					h-2.2v-2.2h2.2V228.5z M307.1,228.5H305v-2.2h2.2V228.5z M302.8,228.5h-2.2v-2.2h2.2V228.5z M302.8,230.7v2.2h-2.2v-2.2H302.8z
					 M298.5,232.8h-2.2v-2.2h2.2V232.8z M317.9,237.1V235h2.2v2.2H317.9z M320.1,228.5h-2.2v-2.2h2.2V228.5z M298.5,226.3v2.2h-2.2
					v-2.2H298.5z"/>
				<path class="st2" d="M301.7,245.7h-4.3c-0.6,0-1.1,0.5-1.1,1.1v8.6c0,0.6,0.5,1.1,1.1,1.1h4.3c0.6,0,1.1-0.5,1.1-1.1v-8.6
					C302.8,246.2,302.3,245.7,301.7,245.7z M300.7,254.4h-2.2v-6.5h2.2V254.4z"/>
				<path class="st2" d="M310.4,245.7H306c-0.6,0-1.1,0.5-1.1,1.1v8.6c0,0.6,0.5,1.1,1.1,1.1h4.3c0.6,0,1.1-0.5,1.1-1.1v-8.6
					C311.4,246.2,310.9,245.7,310.4,245.7z M309.3,254.4h-2.2v-6.5h2.2V254.4z"/>
				<path class="st2" d="M319,245.7h-4.3c-0.6,0-1.1,0.5-1.1,1.1v8.6c0,0.6,0.5,1.1,1.1,1.1h4.3c0.6,0,1.1-0.5,1.1-1.1v-8.6
					C320.1,246.2,319.6,245.7,319,245.7z M317.9,254.4h-2.2v-6.5h2.2V254.4z"/>
				<path class="st2" d="M174.5,303.9h150.9c0.6,0,1.1-0.5,1.1-1.1v-38.8c0-0.6-0.5-1.1-1.1-1.1H174.5c-0.6,0-1.1,0.5-1.1,1.1v38.8
					C173.5,303.5,173.9,303.9,174.5,303.9z M175.6,273.8h4.3v9.8c0,0.8,0.3,1.6,0.9,2.2c0.6,0.6,1.5,1,2.3,0.9l0,0H222
					c1.8,0,3.2-1.4,3.2-3.1v-9.7h2.2v9.8c0,0.8,0.3,1.6,0.9,2.2c0.6,0.6,1.5,1,2.3,0.9l0,0h51.7c1.8,0,3.2-1.4,3.2-3.1v-9.7h4.3v28
					h-4.3v-9.7c0-1.8-1.5-3.1-3.2-3.1h-51.7l0,0c-0.9,0-1.7,0.3-2.3,0.9c-0.6,0.6-0.9,1.3-0.9,2.2v9.8h-2.2v-9.7
					c0-1.8-1.5-3.1-3.2-3.1h-38.8l0,0c-0.9,0-1.7,0.3-2.3,0.9c-0.6,0.6-0.9,1.3-0.9,2.2v9.8h-4.3V273.8z M186.4,273.8v2.2h-1.1
					c-0.6,0-1.1,0.5-1.1,1.1v4.3c0,0.6,0.5,1.1,1.1,1.1h8.6c0.6,0,1.1-0.5,1.1-1.1V277c0-0.6-0.5-1.1-1.1-1.1h-1.1v-2.2h6.5v2.2
					h-1.1c-0.6,0-1.1,0.5-1.1,1.1v4.3c0,0.6,0.5,1.1,1.1,1.1h8.6c0.6,0,1.1-0.5,1.1-1.1V277c0-0.6-0.5-1.1-1.1-1.1h-1.1v-2.2h6.5
					v2.2h-1.1c-0.6,0-1.1,0.5-1.1,1.1v4.3c0,0.6,0.5,1.1,1.1,1.1h8.6c0.6,0,1.1-0.5,1.1-1.1V277c0-0.6-0.5-1.1-1.1-1.1h-1.1v-2.2
					h4.3v9.7c0,0.6-0.5,1-1.1,1h-38.8l0,0c-0.3,0-0.6-0.1-0.8-0.3c-0.2-0.2-0.3-0.4-0.3-0.6v-9.8L186.4,273.8z M190.7,273.8v3.2
					c0,0.6,0.5,1.1,1.1,1.1h1.1v2.2h-6.5v-2.2h1.1c0.6,0,1.1-0.5,1.1-1.1v-3.2H190.7z M203.6,273.8v3.2c0,0.6,0.5,1.1,1.1,1.1h1.1
					v2.2h-6.5v-2.2h1.1c0.6,0,1.1-0.5,1.1-1.1v-3.2H203.6z M216.6,273.8v3.2c0,0.6,0.5,1.1,1.1,1.1h1.1v2.2h-6.5v-2.2h1.1
					c0.6,0,1.1-0.5,1.1-1.1v-3.2H216.6z M233.8,273.8v2.2h-1.1c-0.6,0-1.1,0.5-1.1,1.1v4.3c0,0.6,0.5,1.1,1.1,1.1h8.6
					c0.6,0,1.1-0.5,1.1-1.1V277c0-0.6-0.5-1.1-1.1-1.1h-1.1v-2.2h6.5v2.2h-1.1c-0.6,0-1.1,0.5-1.1,1.1v4.3c0,0.6,0.5,1.1,1.1,1.1
					h8.6c0.6,0,1.1-0.5,1.1-1.1V277c0-0.6-0.5-1.1-1.1-1.1h-1.1v-2.2h6.5v2.2h-1.1c-0.6,0-1.1,0.5-1.1,1.1v4.3
					c0,0.6,0.5,1.1,1.1,1.1h8.6c0.6,0,1.1-0.5,1.1-1.1V277c0-0.6-0.5-1.1-1.1-1.1h-1.1v-2.2h6.5v2.2h-1.1c-0.6,0-1.1,0.5-1.1,1.1
					v4.3c0,0.6,0.5,1.1,1.1,1.1h8.6c0.6,0,1.1-0.5,1.1-1.1V277c0-0.6-0.5-1.1-1.1-1.1h-1.1v-2.2h4.3v9.7c0,0.6-0.5,1-1.1,1h-51.7
					l0,0c-0.3,0-0.6-0.1-0.8-0.3c-0.2-0.2-0.3-0.4-0.3-0.6v-9.8L233.8,273.8z M238.1,273.8v3.2c0,0.6,0.5,1.1,1.1,1.1h1.1v2.2h-6.5
					v-2.2h1.1c0.6,0,1.1-0.5,1.1-1.1v-3.2H238.1z M251.1,273.8v3.2c0,0.6,0.5,1.1,1.1,1.1h1.1v2.2h-6.5v-2.2h1.1
					c0.6,0,1.1-0.5,1.1-1.1v-3.2H251.1z M264,273.8v3.2c0,0.6,0.5,1.1,1.1,1.1h1.1v2.2h-6.5v-2.2h1.1c0.6,0,1.1-0.5,1.1-1.1v-3.2
					H264z M276.9,273.8v3.2c0,0.6,0.5,1.1,1.1,1.1h1.1v2.2h-6.5v-2.2h1.1c0.6,0,1.1-0.5,1.1-1.1v-3.2H276.9z M274.8,298.6
					c0-0.6-0.5-1.1-1.1-1.1h-1.1v-2.2h6.5v2.2H278c-0.6,0-1.1,0.5-1.1,1.1v3.2h-2.2V298.6z M279.1,299.6h1.1c0.6,0,1.1-0.5,1.1-1.1
					v-4.3c0-0.6-0.5-1.1-1.1-1.1h-8.6c-0.6,0-1.1,0.5-1.1,1.1v4.3c0,0.6,0.5,1.1,1.1,1.1h1.1v2.2h-6.5v-2.2h1.1
					c0.6,0,1.1-0.5,1.1-1.1v-4.3c0-0.6-0.5-1.1-1.1-1.1h-8.6c-0.6,0-1.1,0.5-1.1,1.1v4.3c0,0.6,0.5,1.1,1.1,1.1h1.1v2.2h-6.5v-2.2
					h1.1c0.6,0,1.1-0.5,1.1-1.1v-4.3c0-0.6-0.5-1.1-1.1-1.1h-8.6c-0.6,0-1.1,0.5-1.1,1.1v4.3c0,0.6,0.5,1.1,1.1,1.1h1.1v2.2h-6.5
					v-2.2h1.1c0.6,0,1.1-0.5,1.1-1.1v-4.3c0-0.6-0.5-1.1-1.1-1.1h-8.6c-0.6,0-1.1,0.5-1.1,1.1v4.3c0,0.6,0.5,1.1,1.1,1.1h1.1v2.2
					h-4.3v-9.9c0-0.2,0.1-0.5,0.3-0.6c0.2-0.2,0.5-0.3,0.8-0.3l0,0h51.7c0.6,0,1,0.4,1.1,1v9.7h-4.3V299.6z M261.8,298.6
					c0-0.6-0.5-1.1-1.1-1.1h-1.1v-2.2h6.5v2.2h-1.1c-0.6,0-1.1,0.5-1.1,1.1v3.2h-2.2V298.6z M248.9,298.6c0-0.6-0.5-1.1-1.1-1.1
					h-1.1v-2.2h6.5v2.2h-1.1c-0.6,0-1.1,0.5-1.1,1.1v3.2h-2.2V298.6z M236,298.6c0-0.6-0.5-1.1-1.1-1.1h-1.1v-2.2h6.5v2.2h-1.1
					c-0.6,0-1.1,0.5-1.1,1.1v3.2H236V298.6z M214.4,298.6c0-0.6-0.5-1.1-1.1-1.1h-1.1v-2.2h6.5v2.2h-1.1c-0.6,0-1.1,0.5-1.1,1.1v3.2
					h-2.2V298.6z M218.7,299.6h1.1c0.6,0,1.1-0.5,1.1-1.1v-4.3c0-0.6-0.5-1.1-1.1-1.1h-8.6c-0.6,0-1.1,0.5-1.1,1.1v4.3
					c0,0.6,0.5,1.1,1.1,1.1h1.1v2.2h-6.5v-2.2h1.1c0.6,0,1.1-0.5,1.1-1.1v-4.3c0-0.6-0.5-1.1-1.1-1.1h-8.6c-0.6,0-1.1,0.5-1.1,1.1
					v4.3c0,0.6,0.5,1.1,1.1,1.1h1.1v2.2h-6.5v-2.2h1.1c0.6,0,1.1-0.5,1.1-1.1v-4.3c0-0.6-0.5-1.1-1.1-1.1h-8.6
					c-0.6,0-1.1,0.5-1.1,1.1v4.3c0,0.6,0.5,1.1,1.1,1.1h1.1v2.2h-4.3v-9.9c0-0.2,0.1-0.5,0.3-0.6c0.2-0.2,0.5-0.3,0.8-0.3l0,0H222
					c0.6,0,1,0.4,1.1,1v9.7h-4.3V299.6z M201.5,298.6c0-0.6-0.5-1.1-1.1-1.1h-1.1v-2.2h6.5v2.2h-1.1c-0.6,0-1.1,0.5-1.1,1.1v3.2
					h-2.2V298.6z M188.5,298.6c0-0.6-0.5-1.1-1.1-1.1h-1.1v-2.2h6.5v2.2h-1.1c-0.6,0-1.1,0.5-1.1,1.1v3.2h-2.2V298.6z M292,301.8
					v-15.1h32.3v15.1H292z M324.4,284.5H292v-19.4h32.3V284.5z M289.9,265.1v6.5H175.6v-6.5H289.9z"/>
				<rect x="178.9" y="267.3" class="st2" width="4.3" height="2.2"/>
				<rect x="185.4" y="267.3" class="st2" width="2.2" height="2.2"/>
				<rect x="189.7" y="267.3" class="st2" width="2.2" height="2.2"/>
				<rect x="273.8" y="267.3" class="st2" width="12.9" height="2.2"/>
				<rect x="256.5" y="267.3" class="st2" width="12.9" height="2.2"/>
				<path class="st2" d="M295.3,282.4h25.9c0.6,0,1.1-0.5,1.1-1.1v-12.9c0-0.6-0.5-1.1-1.1-1.1h-25.9c-0.6,0-1.1,0.5-1.1,1.1v12.9
					C294.2,281.9,294.7,282.4,295.3,282.4z M296.3,278.1h2.2v2.2h-2.2V278.1z M315.7,275.9h-2.2v-2.2h2.2V275.9z M317.9,273.8h2.2
					v2.2h-2.2V273.8z M305,278.1h2.2v2.2H305V278.1z M302.8,280.2h-2.2v-2.2h2.2V280.2z M307.1,275.9H305v-2.2h2.2V275.9z
					 M309.3,273.8h2.2v2.2h-2.2V273.8z M309.3,278.1h2.2v2.2h-2.2V278.1z M313.6,278.1h2.2v2.2h-2.2V278.1z M313.6,271.6v-2.2h2.2
					v2.2H313.6z M311.4,271.6h-2.2v-2.2h2.2V271.6z M307.1,271.6H305v-2.2h2.2V271.6z M302.8,271.6h-2.2v-2.2h2.2V271.6z
					 M302.8,273.8v2.2h-2.2v-2.2H302.8z M298.5,275.9h-2.2v-2.2h2.2V275.9z M317.9,280.2v-2.2h2.2v2.2H317.9z M320.1,271.6h-2.2
					v-2.2h2.2V271.6z M298.5,269.5v2.2h-2.2v-2.2H298.5z"/>
				<path class="st2" d="M301.7,288.9h-4.3c-0.6,0-1.1,0.5-1.1,1.1v8.6c0,0.6,0.5,1.1,1.1,1.1h4.3c0.6,0,1.1-0.5,1.1-1.1v-8.6
					C302.8,289.3,302.3,288.9,301.7,288.9z M300.7,297.5h-2.2V291h2.2V297.5z"/>
				<path class="st2" d="M310.4,288.9H306c-0.6,0-1.1,0.5-1.1,1.1v8.6c0,0.6,0.5,1.1,1.1,1.1h4.3c0.6,0,1.1-0.5,1.1-1.1v-8.6
					C311.4,289.3,310.9,288.9,310.4,288.9z M309.3,297.5h-2.2V291h2.2V297.5z"/>
				<path class="st2" d="M319,288.9h-4.3c-0.6,0-1.1,0.5-1.1,1.1v8.6c0,0.6,0.5,1.1,1.1,1.1h4.3c0.6,0,1.1-0.5,1.1-1.1v-8.6
					C320.1,289.3,319.6,288.9,319,288.9z M317.9,297.5h-2.2V291h2.2V297.5z"/>
			</g>
		</g>
	</g>
</g>
</svg>
